<svg xmlns="http://www.w3.org/2000/svg" viewBox="0 0 512 512">
  <defs>
    <linearGradient id="g" x1="0%" y1="0%" x2="100%" y2="100%">
      <stop offset="0%" stop-color="#14b8a6"/>
      <stop offset="100%" stop-color="#f59e0b"/>
    </linearGradient>
    <filter id="d" x="-20%" y="-20%" width="140%" height="140%">
      <feDropShadow dx="0" dy="4" stdDeviation="4" flood-opacity="0.25"/>
    </filter>
  </defs>
  
  <!-- Soft rounded background matching the Navbar logo style -->
  <rect width="512" height="512" rx="128" fill="url(#g)"/>
  
  <!-- Keyboard Icon -->
  <g transform="translate(106, 136)" fill="white">
    <!-- Main Board Shape Frame -->
    <path d="M30 0 H270 C286.5 0 300 13.5 300 30 V210 C300 226.5 286.5 240 270 240 H30 C13.5 240 0 226.5 0 210 V30 C0 13.5 13.5 0 30 0 Z M270 30 H30 V210 H270 V30 Z" fill="white" fill-opacity="0.3"/>
    
    <!-- Top Row Keys -->
    <rect x="36" y="45" width="45" height="45" rx="8" fill="white"/>
    <rect x="106" y="45" width="45" height="45" rx="8" fill="white"/>
    <rect x="176" y="45" width="45" height="45" rx="8" fill="white"/>
    
    <!-- Middle Row Keys -->
    <rect x="36" y="115" width="45" height="45" rx="8" fill="white"/>
    <rect x="106" y="115" width="45" height="45" rx="8" fill="white"/>
    <rect x="176" y="115" width="45" height="45" rx="8" fill="white"/>
    
    <!-- Spacebar Row -->
    <rect x="66" y="185" width="168" height="25" rx="8" fill="white"/>
  </g>
</svg>
